<svg xmlns="http://www.w3.org/2000/svg" xmlns:xlink="http://www.w3.org/1999/xlink" width="500" zoomAndPan="magnify" viewBox="0 0 375 374.999991" height="500" preserveAspectRatio="xMidYMid meet" version="1.0"><defs><g/><clipPath id="5c2f0acdad"><rect x="0" width="367" y="0" height="176"/></clipPath></defs><g transform="matrix(1, 0, 0, 1, 8, 98)"><g clip-path="url(#5c2f0acdad)"><g fill="#8e6b69" fill-opacity="1"><g transform="translate(0.459133, 131.181209)"><g><path d="M 110.6875 -121.90625 L 110.6875 0 L 97.5625 0 L 97.5625 -117.765625 C 91.800781 -115.347656 86.878906 -111.519531 82.796875 -106.28125 C 78.710938 -101.039062 75.285156 -94.878906 72.515625 -87.796875 C 69.753906 -80.722656 67.566406 -73.1875 65.953125 -65.1875 C 64.347656 -57.1875 63.140625 -49.1875 62.328125 -41.1875 C 61.523438 -33.1875 60.976562 -25.644531 60.6875 -18.5625 C 60.40625 -11.476562 60.265625 -5.289062 60.265625 0 L 58.53125 0 L 11.921875 -107.40625 L 7.078125 -118.796875 L 7.078125 0 L 6.046875 0 L 6.046875 -121.90625 L 20.375 -121.90625 L 59.75 -30.90625 C 60.4375 -38.851562 61.46875 -47.054688 62.84375 -55.515625 C 64.226562 -63.972656 66.128906 -72.144531 68.546875 -80.03125 C 70.960938 -87.914062 74.070312 -95.023438 77.875 -101.359375 C 81.675781 -107.691406 86.25 -112.695312 91.59375 -116.375 C 96.945312 -120.0625 103.3125 -121.90625 110.6875 -121.90625 Z M 110.6875 -121.90625 "/></g></g></g><g fill="#8e6b69" fill-opacity="1"><g transform="translate(117.169977, 131.181209)"><g><path d="M 143.828125 -22.453125 L 144.1875 -21.75 C 142.113281 -18.988281 139.78125 -16.195312 137.1875 -13.375 C 134.59375 -10.5625 131.710938 -8.203125 128.546875 -6.296875 C 125.390625 -4.398438 121.851562 -3.453125 117.9375 -3.453125 C 112.519531 -3.453125 107.453125 -4.515625 102.734375 -6.640625 C 98.015625 -8.773438 93.875 -11.222656 90.3125 -13.984375 C 84.78125 -9.953125 79.050781 -6.207031 73.125 -2.75 C 67.195312 0.695312 61.210938 3.425781 55.171875 5.4375 C 49.128906 7.445312 43.113281 8.28125 37.125 7.9375 C 31.132812 7.59375 25.265625 5.640625 19.515625 2.078125 C 15.140625 -0.804688 11.828125 -4.632812 9.578125 -9.40625 C 7.335938 -14.1875 6.21875 -19.394531 6.21875 -25.03125 C 6.21875 -30.675781 7.453125 -36.257812 9.921875 -41.78125 C 12.398438 -47.3125 16.171875 -52.378906 21.234375 -56.984375 C 26.304688 -61.585938 32.8125 -65.15625 40.75 -67.6875 C 35.570312 -74.59375 32.175781 -81.441406 30.5625 -88.234375 C 28.945312 -95.023438 28.859375 -101.238281 30.296875 -106.875 C 31.742188 -112.519531 34.566406 -117.039062 38.765625 -120.4375 C 42.960938 -123.832031 48.34375 -125.53125 54.90625 -125.53125 C 60.320312 -125.53125 65.070312 -124.207031 69.15625 -121.5625 C 73.238281 -118.914062 76.257812 -115.460938 78.21875 -111.203125 C 80.175781 -106.941406 80.835938 -102.394531 80.203125 -97.5625 C 79.566406 -92.726562 77.265625 -88.035156 73.296875 -83.484375 C 69.328125 -78.941406 63.367188 -75.113281 55.421875 -72 C 61.179688 -64.289062 67.628906 -56.0625 74.765625 -47.3125 C 81.898438 -38.5625 89.671875 -30.039062 98.078125 -21.75 C 102.566406 -25.550781 106.335938 -29.492188 109.390625 -33.578125 C 112.441406 -37.671875 114.597656 -40.8125 115.859375 -43 L 116.71875 -42.125 C 115 -39.25 112.671875 -35.851562 109.734375 -31.9375 C 106.796875 -28.03125 103.140625 -24.289062 98.765625 -20.71875 C 101.992188 -18.414062 105.1875 -16.253906 108.34375 -14.234375 C 111.507812 -12.222656 114.878906 -10.644531 118.453125 -9.5 C 123.515625 -8.34375 127.945312 -8.828125 131.75 -10.953125 C 135.550781 -13.085938 139.578125 -16.921875 143.828125 -22.453125 Z M 41.265625 -67 C 35.285156 -64.8125 30.109375 -61.726562 25.734375 -57.75 C 21.359375 -53.78125 18.132812 -49.289062 16.0625 -44.28125 C 13.988281 -39.28125 13.351562 -34.015625 14.15625 -28.484375 C 14.96875 -22.960938 17.554688 -17.5 21.921875 -12.09375 C 27.453125 -5.644531 33.898438 -1.785156 41.265625 -0.515625 C 48.628906 0.742188 56.457031 0.0507812 64.75 -2.59375 C 73.039062 -5.238281 81.269531 -9.207031 89.4375 -14.5 C 85.875 -17.5 81.875 -21.210938 77.4375 -25.640625 C 73.007812 -30.078125 68.519531 -34.796875 63.96875 -39.796875 C 59.425781 -44.804688 55.164062 -49.695312 51.1875 -54.46875 C 47.21875 -59.25 43.910156 -63.425781 41.265625 -67 Z M 54.90625 -123.8125 C 48.570312 -123.8125 43.878906 -121.9375 40.828125 -118.1875 C 37.785156 -114.445312 37.179688 -108.804688 39.015625 -101.265625 C 40.859375 -93.734375 46.039062 -84.269531 54.5625 -72.875 C 59.28125 -75.519531 63.050781 -78.96875 65.875 -83.21875 C 68.695312 -87.476562 70.566406 -91.941406 71.484375 -96.609375 C 72.410156 -101.273438 72.382812 -105.675781 71.40625 -109.8125 C 70.425781 -113.957031 68.550781 -117.328125 65.78125 -119.921875 C 63.019531 -122.515625 59.394531 -123.8125 54.90625 -123.8125 Z M 54.90625 -123.8125 "/></g></g></g><g fill="#8e6b69" fill-opacity="1"><g transform="translate(267.374777, 131.181209)"><g><path d="M 14.84375 -92.546875 C 14.84375 -98.992188 16.394531 -104.347656 19.5 -108.609375 C 22.613281 -112.867188 26.675781 -116.175781 31.6875 -118.53125 C 36.695312 -120.894531 42.191406 -122.335938 48.171875 -122.859375 C 54.160156 -123.378906 60.085938 -123.0625 65.953125 -121.90625 C 71.828125 -120.75 77.148438 -118.847656 81.921875 -116.203125 C 86.703125 -113.554688 90.300781 -110.21875 92.71875 -106.1875 L 92.71875 -88.0625 C 88.34375 -96.925781 83.273438 -103.832031 77.515625 -108.78125 C 71.765625 -113.726562 65.835938 -117.09375 59.734375 -118.875 C 53.640625 -120.664062 47.828125 -121.15625 42.296875 -120.34375 C 36.773438 -119.539062 32 -117.757812 27.96875 -115 C 24.632812 -112.8125 22.363281 -110.046875 21.15625 -106.703125 C 19.945312 -103.367188 20.289062 -99.597656 22.1875 -95.390625 C 24.082031 -91.191406 27.90625 -86.734375 33.65625 -82.015625 C 39.414062 -77.296875 47.535156 -72.460938 58.015625 -67.515625 C 64.347656 -64.867188 70.304688 -61.875 75.890625 -58.53125 C 81.472656 -55.195312 86.019531 -51.171875 89.53125 -46.453125 C 93.039062 -41.734375 94.796875 -35.976562 94.796875 -29.1875 C 94.796875 -24.582031 93.898438 -20.460938 92.109375 -16.828125 C 90.328125 -13.203125 87.882812 -10.125 84.78125 -7.59375 C 79.832031 -3.800781 73.90625 -1.382812 67 -0.34375 C 60.09375 0.6875 52.867188 0.457031 45.328125 -1.03125 C 37.785156 -2.53125 30.5625 -5.265625 23.65625 -9.234375 C 16.75 -13.203125 10.878906 -18.296875 6.046875 -24.515625 L 6.046875 -48.515625 C 10.304688 -37.816406 15.65625 -28.894531 22.09375 -21.75 C 28.539062 -14.613281 35.476562 -9.316406 42.90625 -5.859375 C 50.332031 -2.410156 57.582031 -0.914062 64.65625 -1.375 C 71.738281 -1.84375 77.988281 -4.378906 83.40625 -8.984375 C 86.28125 -11.398438 88.09375 -14.25 88.84375 -17.53125 C 89.59375 -20.8125 88.898438 -24.460938 86.765625 -28.484375 C 84.640625 -32.515625 80.726562 -36.742188 75.03125 -41.171875 C 69.332031 -45.609375 61.472656 -50.128906 51.453125 -54.734375 C 45.234375 -57.492188 39.332031 -60.539062 33.75 -63.875 C 28.164062 -67.21875 23.617188 -71.191406 20.109375 -75.796875 C 16.597656 -80.398438 14.84375 -85.984375 14.84375 -92.546875 Z M 14.84375 -92.546875 "/></g></g></g></g></g></svg>