<svg xmlns="http://www.w3.org/2000/svg" xmlns:xlink="http://www.w3.org/1999/xlink" width="500" zoomAndPan="magnify" viewBox="0 0 375 374.999991" height="500" preserveAspectRatio="xMidYMid meet" version="1.0"><defs><g/><clipPath id="04a8442a2c"><path d="M 65.433594 281 L 298 281 L 298 322 L 65.433594 322 Z M 65.433594 281 " clip-rule="nonzero"/></clipPath><clipPath id="4b1bdf4008"><path d="M 240 309 L 309.929688 309 L 309.929688 328 L 240 328 Z M 240 309 " clip-rule="nonzero"/></clipPath></defs><rect x="-37.5" width="450" fill="#ffffff" y="-37.499999" height="449.999989" fill-opacity="1"/><rect x="-37.5" width="450" fill="#ffffff" y="-37.499999" height="449.999989" fill-opacity="1"/><g fill="#8e6b69" fill-opacity="1"><g transform="translate(2.4374, 158.23199)"><g><path d="M 28.671875 0 L 16.234375 0 L 16.234375 -122.265625 L 35.234375 -122.265625 L 76.671875 -21.0625 L 76.84375 -21.0625 L 117.765625 -122.265625 L 136.765625 -122.265625 L 136.765625 0 L 124.328125 0 L 124.328125 -106.203125 L 123.984375 -106.203125 L 79.78125 0 L 73.21875 0 L 29.015625 -106.203125 L 28.671875 -106.203125 Z M 28.671875 0 "/></g></g></g><g fill="#8e6b69" fill-opacity="1"><g transform="translate(155.428143, 158.23199)"><g><path d="M 46.625 2.078125 C 39.488281 2.078125 33.039062 0.753906 27.28125 -1.890625 C 21.53125 -4.546875 16.957031 -8.40625 13.5625 -13.46875 C 10.164062 -18.53125 8.46875 -24.632812 8.46875 -31.78125 C 8.46875 -40.40625 10.96875 -47.625 15.96875 -53.4375 C 20.976562 -59.257812 27.914062 -64.125 36.78125 -68.03125 C 32.289062 -72.644531 28.691406 -77.28125 25.984375 -81.9375 C 23.285156 -86.601562 21.9375 -91.46875 21.9375 -96.53125 C 21.9375 -102.40625 23.285156 -107.53125 25.984375 -111.90625 C 28.691406 -116.28125 32.347656 -119.617188 36.953125 -121.921875 C 41.554688 -124.222656 46.679688 -125.375 52.328125 -125.375 C 57.847656 -125.375 62.820312 -124.28125 67.25 -122.09375 C 71.6875 -119.90625 75.226562 -116.738281 77.875 -112.59375 C 80.53125 -108.445312 81.859375 -103.550781 81.859375 -97.90625 C 81.859375 -90.65625 79.351562 -84.523438 74.34375 -79.515625 C 69.332031 -74.515625 62.679688 -69.941406 54.390625 -65.796875 L 82.890625 -36.4375 L 99.8125 -66.140625 L 113.796875 -66.140625 L 91.359375 -28.328125 L 118.8125 0 L 101.546875 0 L 84.265625 -18.125 C 79.203125 -11.101562 73.707031 -5.976562 67.78125 -2.75 C 61.851562 0.46875 54.800781 2.078125 46.625 2.078125 Z M 47.3125 -73.21875 C 54.101562 -76.320312 59.539062 -79.800781 63.625 -83.65625 C 67.71875 -87.519531 69.765625 -92.269531 69.765625 -97.90625 C 69.765625 -101.25 69.015625 -104.210938 67.515625 -106.796875 C 66.023438 -109.390625 63.953125 -111.4375 61.296875 -112.9375 C 58.648438 -114.4375 55.71875 -115.1875 52.5 -115.1875 C 48.925781 -115.1875 45.726562 -114.40625 42.90625 -112.84375 C 40.09375 -111.289062 37.90625 -109.078125 36.34375 -106.203125 C 34.789062 -103.328125 34.015625 -100.046875 34.015625 -96.359375 C 34.015625 -93.597656 34.765625 -90.691406 36.265625 -87.640625 C 37.765625 -84.585938 39.546875 -81.765625 41.609375 -79.171875 C 43.679688 -76.585938 45.582031 -74.601562 47.3125 -73.21875 Z M 46.796875 -8.28125 C 53.242188 -8.28125 58.710938 -9.71875 63.203125 -12.59375 C 67.691406 -15.476562 71.953125 -20.03125 75.984375 -26.25 L 43.6875 -60.09375 C 36.207031 -56.757812 30.59375 -52.785156 26.84375 -48.171875 C 23.101562 -43.566406 21.234375 -38.046875 21.234375 -31.609375 C 21.234375 -27.109375 22.382812 -23.070312 24.6875 -19.5 C 26.988281 -15.9375 30.097656 -13.175781 34.015625 -11.21875 C 37.929688 -9.257812 42.191406 -8.28125 46.796875 -8.28125 Z M 46.796875 -8.28125 "/></g></g></g><g fill="#8e6b69" fill-opacity="1"><g transform="translate(276.991901, 158.23199)"><g><path d="M 47.140625 3.109375 C 39.429688 3.109375 32.148438 1.554688 25.296875 -1.546875 C 18.453125 -4.660156 12.898438 -9.15625 8.640625 -15.03125 L 19.34375 -22.96875 C 22.21875 -18.363281 26.070312 -14.648438 30.90625 -11.828125 C 35.738281 -9.003906 41.207031 -7.59375 47.3125 -7.59375 C 51.6875 -7.59375 55.972656 -8.515625 60.171875 -10.359375 C 64.378906 -12.203125 67.804688 -14.90625 70.453125 -18.46875 C 73.097656 -22.039062 74.421875 -26.300781 74.421875 -31.25 C 74.421875 -36.550781 73.097656 -40.84375 70.453125 -44.125 C 67.804688 -47.40625 64.554688 -49.90625 60.703125 -51.625 C 56.847656 -53.351562 51.460938 -55.3125 44.546875 -57.5 C 37.984375 -59.570312 32.367188 -61.84375 27.703125 -64.3125 C 23.046875 -66.789062 19.222656 -70.242188 16.234375 -74.671875 C 13.242188 -79.109375 11.75 -84.785156 11.75 -91.703125 C 11.75 -99.179688 13.675781 -105.453125 17.53125 -110.515625 C 21.382812 -115.585938 26.273438 -119.332031 32.203125 -121.75 C 38.128906 -124.164062 44.316406 -125.375 50.765625 -125.375 C 58.484375 -125.375 65.390625 -123.960938 71.484375 -121.140625 C 77.585938 -118.316406 82.195312 -114.773438 85.3125 -110.515625 L 75.46875 -102.578125 C 72.820312 -106.378906 69.367188 -109.375 65.109375 -111.5625 C 60.847656 -113.75 55.894531 -114.84375 50.25 -114.84375 C 45.988281 -114.84375 41.875 -113.976562 37.90625 -112.25 C 33.9375 -110.519531 30.65625 -107.925781 28.0625 -104.46875 C 25.46875 -101.019531 24.171875 -96.820312 24.171875 -91.875 C 24.171875 -87.03125 25.347656 -83.113281 27.703125 -80.125 C 30.066406 -77.132812 32.945312 -74.859375 36.34375 -73.296875 C 39.738281 -71.742188 44.546875 -69.929688 50.765625 -67.859375 C 58.941406 -65.210938 65.332031 -62.765625 69.9375 -60.515625 C 74.539062 -58.273438 78.539062 -54.878906 81.9375 -50.328125 C 85.332031 -45.785156 87.03125 -39.71875 87.03125 -32.125 C 87.03125 -24.40625 85.128906 -17.894531 81.328125 -12.59375 C 77.535156 -7.300781 72.585938 -3.359375 66.484375 -0.765625 C 60.378906 1.816406 53.929688 3.109375 47.140625 3.109375 Z M 47.140625 3.109375 "/></g></g></g><g clip-path="url(#04a8442a2c)"><path fill="#8e6b69" d="M 65.433594 309.941406 C 85.175781 304.679688 107.136719 306.457031 131.234375 314.925781 C 156.5 323.808594 159.632812 324.085938 182.523438 311.839844 C 196.207031 304.515625 210.308594 298.789062 226.707031 301.753906 C 241.074219 304.351562 245.066406 310.683594 258.25 299.007812 C 283.730469 276.445312 300.136719 293.910156 292.132812 320.246094 C 306.996094 298.195312 286.808594 262.292969 254.007812 295.230469 C 244.785156 304.492188 237.746094 298.632812 227.175781 296.035156 C 210.519531 291.953125 193.675781 296.792969 176.757812 304.921875 C 155.558594 315.105469 155.808594 315.636719 132 308.664062 C 103.898438 300.445312 82.507812 302.046875 65.433594 309.941406 " fill-opacity="1" fill-rule="nonzero"/></g><g clip-path="url(#4b1bdf4008)"><path fill="#8e6b69" d="M 240.179688 309.496094 C 266.484375 314.722656 288.117188 337.152344 309.933594 323.832031 C 285.332031 328.996094 266.214844 306.75 240.179688 309.496094 " fill-opacity="1" fill-rule="nonzero"/></g><path fill="#8e6b69" d="M 174.257812 258.496094 C 182.515625 272.710938 191.800781 284.363281 202.011719 293.144531 C 186.507812 288.851562 178.238281 276.191406 174.257812 258.496094 " fill-opacity="1" fill-rule="nonzero"/><path fill="#8e6b69" d="M 138.84375 307.585938 C 152.828125 295.3125 150.839844 266.121094 151.140625 255.050781 C 151.367188 246.621094 152.746094 238.988281 160.636719 234.441406 C 174.179688 226.636719 174.714844 230.652344 178.601562 213.78125 C 179.722656 208.902344 180.613281 203.710938 181.890625 199.042969 C 188.578125 174.660156 219.992188 187.917969 209.917969 213.128906 C 204.734375 226.074219 191.101562 241.683594 181.03125 224.347656 C 184.851562 246.132812 207.9375 232.980469 214.652344 215.058594 C 225.382812 186.441406 186.664062 168.46875 178.117188 198.578125 C 176.816406 203.167969 175.832031 208.023438 174.601562 212.671875 C 171.53125 224.25 171.230469 222.800781 161.253906 227.140625 C 147.867188 232.957031 145.996094 242.195312 145.546875 255.328125 C 145.132812 267.523438 146.414062 290.984375 138.84375 307.585938 " fill-opacity="1" fill-rule="nonzero"/><path fill="#8e6b69" d="M 241.328125 294.25 C 231.5625 282.886719 215.066406 281.804688 206.695312 264.542969 C 199.34375 249.398438 199.820312 239.90625 179.363281 235.214844 C 194.804688 242.511719 196.105469 251.34375 200.867188 265.460938 C 205.722656 279.867188 231.859375 287.726562 241.328125 294.25 " fill-opacity="1" fill-rule="nonzero"/><path fill="#8e6b69" d="M 183.261719 187.492188 C 178.210938 171.535156 197.96875 168.765625 196.03125 182.578125 C 192.359375 173.644531 183.089844 176.863281 183.261719 187.492188 " fill-opacity="1" fill-rule="nonzero"/></svg>